<!-- Generated by IcoMoon.io -->
<svg version="1.1" xmlns="http://www.w3.org/2000/svg" width="24" height="24" viewBox="0 0 24 24">
<title>search</title>
<path d="M15 0.004c-4.97 0-9 4.030-9 9 0 1.52 0.38 2.95 1.046 4.206l-6.258 6.256 0.005 0.005c-0.489 0.481-0.794 1.147-0.794 1.887 0 1.462 1.185 2.647 2.647 2.647 0.739 0 1.406-0.304 1.886-0.794l-0.002-0.001 6.256-6.255c1.257 0.668 2.689 1.050 4.213 1.050 4.97 0 9-4.030 9-9s-4.030-9-9-9zM3.596 22.273c-0.241 0.25-0.576 0.407-0.95 0.407-0.731 0-1.324-0.592-1.324-1.323 0-0.373 0.157-0.707 0.407-0.95l-0.007-0.006 6.050-6.050c0.529 0.713 1.159 1.343 1.87 1.874l-6.047 6.047zM15 16.505c-4.142 0-7.5-3.359-7.5-7.5s3.358-7.5 7.5-7.5c4.141 0 7.5 3.358 7.5 7.5s-3.359 7.5-7.5 7.5zM15 3.754c0.206 0 0.375 0.168 0.375 0.375s-0.169 0.375-0.375 0.375c-2.486 0-4.5 2.015-4.5 4.5 0 0.207-0.168 0.375-0.375 0.375s-0.375-0.168-0.375-0.375c0-2.9 2.35-5.25 5.25-5.25z"></path>
</svg>
