<!-- Generated by IcoMoon.io -->
<svg version="1.1" xmlns="http://www.w3.org/2000/svg" width="24" height="24" viewBox="0 0 24 24">
<title>star</title>
<path d="M23.911 9.418c-0.208-0.599-0.741-1.038-1.383-1.133l-6.244-0.928-2.714-5.636c-0.286-0.592-0.897-0.971-1.569-0.971s-1.283 0.379-1.569 0.971l-2.714 5.636-6.245 0.928c-0.641 0.095-1.175 0.534-1.381 1.133-0.206 0.601-0.050 1.262 0.403 1.714l4.577 4.569-1.061 6.338c-0.108 0.638 0.169 1.279 0.711 1.652 0.298 0.205 0.648 0.309 0.998 0.309 0.288 0 0.577-0.071 0.838-0.211l5.444-2.931 5.445 2.931c0.262 0.14 0.55 0.211 0.838 0.211 0.35 0 0.7-0.104 0.999-0.309 0.542-0.374 0.817-1.014 0.71-1.652l-1.062-6.338 4.578-4.569c0.452-0.452 0.607-1.114 0.403-1.714zM17.691 14.522c-0.384 0.383-0.558 0.922-0.47 1.451l1.062 6.338-5.445-2.929c-0.261-0.141-0.549-0.211-0.838-0.211-0.288 0-0.577 0.071-0.838 0.211l-5.445 2.929 1.062-6.338c0.088-0.529-0.086-1.068-0.47-1.451l-4.577-4.569 6.245-0.93c0.571-0.085 1.062-0.442 1.307-0.951l2.716-5.634 2.715 5.635c0.246 0.509 0.736 0.865 1.306 0.951l6.246 0.93-4.576 4.568z"></path>
</svg>
