<!-- Generated by IcoMoon.io -->
<svg version="1.1" xmlns="http://www.w3.org/2000/svg" width="24" height="24" viewBox="0 0 24 24">
<title>user</title>
<path d="M23.332 21.252c-0.151-0.1-2.886-1.894-6.955-2.774 1.492-1.891 2.451-4.434 2.858-6.127 0.566-2.346 0.346-6.936-1.907-9.796-1.317-1.672-3.16-2.554-5.329-2.554s-4.012 0.883-5.328 2.554c-2.253 2.86-2.472 7.45-1.907 9.796 0.407 1.693 1.365 4.236 2.858 6.127-4.069 0.88-6.804 2.674-6.954 2.774-0.55 0.366-0.796 1.050-0.604 1.682 0.191 0.634 0.775 1.067 1.435 1.067h21c0.661 0 1.244-0.433 1.436-1.067 0.193-0.631-0.053-1.316-0.603-1.681zM15.2 17.549l-0.245 0.311c-1.789 2.055-4.121 2.055-5.909 0l-0.245-0.311c-2.089-2.647-3.125-6.148-2.679-9.488 0.409-3.209 2.248-6.561 5.878-6.561s5.47 3.353 5.879 6.562c0.445 3.341-0.588 6.838-2.678 9.487zM1.5 22.5c0.103-0.069 2.644-1.736 6.44-2.556l1.863-0.403c0.665 0.437 1.395 0.709 2.197 0.709s1.532-0.272 2.197-0.709l1.863 0.403c3.765 0.814 6.297 2.462 6.439 2.556h-21z"></path>
</svg>
